<svg xmlns="http://www.w3.org/2000/svg" width="175.076" height="51.165" viewBox="0 0 175.076 51.165">
  <g id="Group_4" data-name="Group 4" transform="translate(-55.965 -370.232)">
    <g id="Group_1" data-name="Group 1" transform="translate(55.965 370.232)">
      <path id="Path_1" data-name="Path 1" d="M59.5,383.049c.286-1.028.493-1.767.7-2.671a3.93,3.93,0,0,1,3.168-2.986c2.725-.632,20.383-6.072,22.391-6.67,1.931-.575,3.072-.8,4.65.2,1.672,1.061,9.922,7.906,9.922,7.906s8.162-2.643,9.014-2.758c4.577-.621,13.21.451,13.21.451l-.717,42.152-1.6-9.41-6.78-2.959-1.6,11.177h-4.684a13.519,13.519,0,0,0,1.479-6.78,11.272,11.272,0,0,0-2.013-6.862,1.472,1.472,0,0,0,1.11-1.562c0-1.356-.082-19.724-.082-21.121s-.529-2.287-1.685-1.89c-1.214.417-3.555,1.228-3.555,1.228l2.733,2.182v18.532s-1.035-.979-3.706-.979c-3.27,0-6.1,4.472-6.1,10.8,0,5.944,1.39,6.821,1.39,6.821H57.486A1.646,1.646,0,0,1,55.965,416H88.8a18.978,18.978,0,0,1-.575-4.315l-2.753,1.438-29.5.945V402.609l32.3-3.027a14.634,14.634,0,0,1,.372-4.068c.842-1.817,5.622-1.522,8.3-.575,3.139,1.112,4.6,1.013,4.6.027v-8.054s-11.67-7.032-12.615-7.566a5.22,5.22,0,0,0-3.665-.231c-1.5.339-24.273,6.042-25.017,6.235-.5.13-1.366-.058-1.366-.738C58.873,383.99,59.266,383.886,59.5,383.049Z" transform="translate(-55.965 -370.232)" fill="#c03b2b"/>
      <path id="Path_2" data-name="Path 2" d="M234.677,535.12c-2.565,0-4.645,4.06-4.645,9.068a13.459,13.459,0,0,0,1.791,7.152h-10.7a3.6,3.6,0,0,0,2.853,1.916h10.7c2.565,0,4.644-4.06,4.644-9.068S237.242,535.12,234.677,535.12Z" transform="translate(-188.561 -502.614)" fill="#48484a"/>
      <path id="Path_3" data-name="Path 3" d="M325.748,569.118c-1.623,0-2.94,2.57-2.94,5.74a9.684,9.684,0,0,0,.609,3.5h-6.883c.537,1.364,1.381,2.244,2.331,2.244h6.883c1.623,0,2.94-2.57,2.94-5.739S327.372,569.118,325.748,569.118Z" transform="translate(-265.165 -529.909)" fill="#48484a"/>
      <path id="Path_4" data-name="Path 4" d="M112.5,611.793c.849,2.154,2.182,3.544,3.682,3.544h6.126c1.5,0,2.833-1.39,3.682-3.544Z" transform="translate(-101.355 -564.171)" fill="#48484a"/>
      <path id="Path_5" data-name="Path 5" d="M283.037,554.041a1.432,1.432,0,0,0-1.079.624,1.009,1.009,0,0,1,.2-.021c1.243,0,2.25,2.333,2.25,5.21,0,2.383-.691,4.39-1.634,5.011a1.026,1.026,0,0,0,.267.037c1.28,0,2.319-2.431,2.319-5.431S284.318,554.041,283.037,554.041Z" transform="translate(-237.405 -517.805)" fill="#fff"/>
      <path id="Path_6" data-name="Path 6" d="M359.046,581.672a.88.88,0,0,0-.682.351.611.611,0,0,1,.121-.007c.764.038,1.312,1.5,1.225,3.27-.072,1.464-.558,2.677-1.156,3.03a.637.637,0,0,0,.163.031c.787.039,1.5-1.424,1.59-3.267S359.833,581.711,359.046,581.672Z" transform="translate(-298.748 -539.988)" fill="#fff"/>
      <path id="Path_7" data-name="Path 7" d="M69.289,561.726a.421.421,0,0,1-.371.424l-6.472.208a.371.371,0,0,1-.371-.371v-3.575a.371.371,0,0,1,.371-.371l6.472-.608a.371.371,0,0,1,.371.371Z" transform="translate(-60.871 -520.529)" fill="#fff"/>
      <path id="Path_8" data-name="Path 8" d="M157.359,553.258a.544.544,0,0,1-.48.55l-9.686.333a.48.48,0,0,1-.48-.48v-4.329a.48.48,0,0,1,.48-.48l9.686-.9a.48.48,0,0,1,.48.48Z" transform="translate(-128.823 -512.914)" fill="#fff"/>
    </g>
    <g id="Group_2" data-name="Group 2" transform="translate(127.145 377.442)">
      <path id="Path_9" data-name="Path 9" d="M421.323,416.686h3.9v-3.139h-3.9v-2.511H425.8V407.8h-8.272v14.124h3.8Z" transform="translate(-417.426 -407.603)" fill="#c03b2b"/>
      <path id="Path_10" data-name="Path 10" d="M477.895,418.844h-5.323V407.8h-3.8v14.124h9.122Z" transform="translate(-458.571 -407.603)" fill="#c03b2b"/>
      <path id="Path_11" data-name="Path 11" d="M525.942,418.961h4.26l.724,2.962h4.3L530.583,407.8h-5.06l-4.507,14.124h4.2Zm2.125-8.606L529.461,416h-2.794Z" transform="translate(-500.515 -407.603)" fill="#c03b2b"/>
      <path id="Path_12" data-name="Path 12" d="M592.353,421.924h3.93V411.01h3.237V407.8h-10.4v3.211h3.237Z" transform="translate(-555.19 -407.603)" fill="#c03b2b"/>
      <path id="Path_13" data-name="Path 13" d="M681.179,416.98h.53c4.512,0,5.951-1.452,5.951-4.591,0-3.237-1.858-4.59-5.951-4.59H677.38v14.124h3.8Zm0-6.3h.392c1.452,0,2.413.059,2.413,1.707s-.961,1.707-2.413,1.707h-.392Z" transform="translate(-626.053 -407.603)" fill="#c03b2b"/>
      <path id="Path_14" data-name="Path 14" d="M750.612,421.923v-.2l-2.079-3.158c-.863-1.314-2.056-2.734-2.056-2.734a3.984,3.984,0,0,0,2.318-3.641c0-3.786-3.086-4.394-6.147-4.394h-4v14.124h3.668v-5.336h.785l3.1,5.336Zm-7.71-8.089h-.589v-3.152h.589c1.059,0,2.217.059,2.217,1.511S743.962,413.835,742.9,413.835Z" transform="translate(-675.241 -407.603)" fill="#c03b2b"/>
      <rect id="Rectangle_1" data-name="Rectangle 1" width="3.93" height="14.124" transform="translate(76.581 0.196)" fill="#c03b2b"/>
      <path id="Path_15" data-name="Path 15" d="M842.737,410.042a5.563,5.563,0,0,1,2.393.549l1.2-2.687a7.923,7.923,0,0,0-4.139-1.1c-4.433,0-6.983,3.3-6.983,7.435s2.138,7.082,6.709,7.082a8.461,8.461,0,0,0,3.708-.825v-3.354a5.439,5.439,0,0,1-3.08.844c-2.452,0-3.139-1.452-3.139-3.982C839.4,411.454,840.206,410.042,842.737,410.042Z" transform="translate(-752.764 -406.805)" fill="#c03b2b"/>
      <path id="Path_16" data-name="Path 16" d="M905.081,418.687v-2.472h4.165v-3.06h-4.165v-2.119h4.6V407.8h-8.272v14.124h8.4v-3.237Z" transform="translate(-805.919 -407.603)" fill="#c03b2b"/>
      <path id="Path_17" data-name="Path 17" d="M427.884,490.062l-2.893,10.175-2.89-10.175h-5.074v14.124H420.3V494.6l2.707,9.39h3.962l2.705-9.39v9.586h3.278V490.062Z" transform="translate(-417.026 -473.649)" fill="#c03b2b"/>
      <path id="Path_18" data-name="Path 18" d="M514.745,489.068c-4.179,0-6.964,2.491-6.964,7.258s2.785,7.258,6.964,7.258,6.964-2.491,6.964-7.258S518.923,489.068,514.745,489.068Zm0,11.378c-2.021,0-2.766-1.962-2.766-4.12s.745-4.119,2.766-4.119,2.766,1.962,2.766,4.119S516.766,500.446,514.745,500.446Z" transform="translate(-489.889 -472.85)" fill="#c03b2b"/>
      <path id="Path_19" data-name="Path 19" d="M587.1,501.3l-2.452-11.241h-4.22l4.407,14.124H589.2l4.61-14.124h-4.38Z" transform="translate(-548.212 -473.649)" fill="#c03b2b"/>
      <rect id="Rectangle_2" data-name="Rectangle 2" width="3.668" height="14.124" transform="translate(47.155 16.414)" fill="#c03b2b"/>
      <path id="Path_20" data-name="Path 20" d="M699.54,499.779l-5.064-9.717h-4.724v14.124h3.083v-9.848l5.195,9.848h4.855V490.062H699.54Z" transform="translate(-635.986 -473.649)" fill="#c03b2b"/>
      <path id="Path_21" data-name="Path 21" d="M774.73,492.3a9.563,9.563,0,0,1,3.041.549l1.2-2.687a9.458,9.458,0,0,0-4.551-1.1c-4.59,0-7.709,2.923-7.709,7.454,0,4.335,2.413,7.062,7.1,7.062a11.528,11.528,0,0,0,5.159-1.125v-7.271h-5.741v2.818h2.465v2.263a5.693,5.693,0,0,1-1.55.216c-2.746,0-3.237-1.667-3.237-4.1C770.905,493.639,772.1,492.3,774.73,492.3Z" transform="translate(-697.77 -472.85)" fill="#c03b2b"/>
    </g>
    <g id="Group_3" data-name="Group 3" transform="translate(125.842 411.344)">
      <path id="Path_22" data-name="Path 22" d="M416.11,584.829a8.853,8.853,0,0,0,.632-1.118h-1.408a2.45,2.45,0,0,1-.212.367q-.145.214-.449.6l-.849-.97a2.727,2.727,0,0,0,.852-.746,1.521,1.521,0,0,0,.275-.885,1.3,1.3,0,0,0-.494-1.057,2.007,2.007,0,0,0-1.312-.4,2.1,2.1,0,0,0-1.41.458,1.476,1.476,0,0,0-.539,1.178,1.4,1.4,0,0,0,.13.577,4.008,4.008,0,0,0,.465.733,3.528,3.528,0,0,0-1.046.872,1.625,1.625,0,0,0-.326.988,1.5,1.5,0,0,0,.559,1.193,2.128,2.128,0,0,0,1.426.474,3.459,3.459,0,0,0,1.015-.15,3.52,3.52,0,0,0,.939-.449l.447.487h1.886l-1.216-1.4A4.373,4.373,0,0,0,416.11,584.829Zm-2.991,1.089a1.276,1.276,0,0,1-.467.091.727.727,0,0,1-.534-.206.71.71,0,0,1-.208-.527.729.729,0,0,1,.141-.434,1.877,1.877,0,0,1,.48-.425l1.064,1.225A1.99,1.99,0,0,1,413.119,585.918Zm.474-3.342a1.444,1.444,0,0,1-.458.358,3.464,3.464,0,0,1-.431-.49.639.639,0,0,1-.127-.346.409.409,0,0,1,.165-.333.654.654,0,0,1,.42-.132.593.593,0,0,1,.42.146.5.5,0,0,1,.157.387A.658.658,0,0,1,413.593,582.576Z" transform="translate(-410.417 -580.253)" fill="#48484a"/>
      <path id="Path_23" data-name="Path 23" d="M458.391,581.162l-2.2,6.254h1.667l.5-1.216h2.172l.447,1.216h1.658l-2.175-6.254Zm.285,3.965.839-2.64.745,2.64Z" transform="translate(-447.164 -580.69)" fill="#48484a"/>
      <path id="Path_24" data-name="Path 24" d="M494.166,592.081a1.624,1.624,0,0,1-.477.551,1,1,0,0,1-.575.185.569.569,0,0,1-.5-.229,1.293,1.293,0,0,1-.161-.728V589.1h-1.476v2.962a1.954,1.954,0,0,0,.415,1.341,1.5,1.5,0,0,0,1.185.467,2.182,2.182,0,0,0,.864-.161,2.3,2.3,0,0,0,.726-.516v.587h1.476V589.1h-1.476Z" transform="translate(-475.094 -587.062)" fill="#48484a"/>
      <path id="Path_25" data-name="Path 25" d="M522.059,588.528a1.513,1.513,0,0,1-.378.051.64.64,0,0,1-.505-.163,1.067,1.067,0,0,1-.138-.651V585.75h1.448v-.925h-1.448v-1.05h-.589a4.392,4.392,0,0,1-1.343,1.689v.286h.608v2.007a2.275,2.275,0,0,0,.344,1.43,1.419,1.419,0,0,0,1.153.416,3.6,3.6,0,0,0,.639-.058,3.73,3.73,0,0,0,.644-.179l-.009-1A2.45,2.45,0,0,1,522.059,588.528Z" transform="translate(-497.679 -582.788)" fill="#48484a"/>
      <path id="Path_26" data-name="Path 26" d="M542.695,588.435a2.2,2.2,0,0,0-1.679.684,2.744,2.744,0,0,0,0,3.537,2.425,2.425,0,0,0,3.368,0,2.727,2.727,0,0,0,0-3.532A2.22,2.22,0,0,0,542.695,588.435Zm.693,3.421a.844.844,0,0,1-1.384,0,1.9,1.9,0,0,1,0-1.93.833.833,0,0,1,1.379,0,1.919,1.919,0,0,1,0,1.93Z" transform="translate(-514.751 -586.529)" fill="#48484a"/>
      <path id="Path_27" data-name="Path 27" d="M582.753,583.7a7.013,7.013,0,0,0-1.165-.568q-.167-.067-.248-.1a1.975,1.975,0,0,1-.576-.329.5.5,0,0,1-.191-.369.411.411,0,0,1,.213-.371,1.2,1.2,0,0,1,.619-.13,2.642,2.642,0,0,1,.828.152,5.671,5.671,0,0,1,.785.34l.242-1.153a4.62,4.62,0,0,0-.962-.38,3.765,3.765,0,0,0-.971-.13,2.323,2.323,0,0,0-1.549.5,1.62,1.62,0,0,0-.595,1.3,1.758,1.758,0,0,0,.457,1.249,4.621,4.621,0,0,0,1.671.959,1.985,1.985,0,0,1,.625.324.491.491,0,0,1,.134.36.468.468,0,0,1-.215.418,1.167,1.167,0,0,1-.633.141,2.318,2.318,0,0,1-.855-.174,5.847,5.847,0,0,1-1.082-.613v1.39a3.619,3.619,0,0,0,.948.456,3.448,3.448,0,0,0,1.021.152,2.5,2.5,0,0,0,1.65-.5,1.681,1.681,0,0,0,.595-1.363,2.107,2.107,0,0,0-.189-.921A1.607,1.607,0,0,0,582.753,583.7Z" transform="translate(-545.913 -580.289)" fill="#48484a"/>
      <path id="Path_28" data-name="Path 28" d="M609.787,581.038a2.183,2.183,0,0,0-.863.16,2.22,2.22,0,0,0-.72.521v-2.55h-1.475v6.638H608.2v-2.979a1.7,1.7,0,0,1,.469-.552.961.961,0,0,1,.572-.187.562.562,0,0,1,.5.232,1.307,1.307,0,0,1,.16.73v2.757h1.475v-2.959a1.976,1.976,0,0,0-.409-1.344A1.485,1.485,0,0,0,609.787,581.038Z" transform="translate(-568.028 -579.09)" fill="#48484a"/>
      <path id="Path_29" data-name="Path 29" d="M636.391,578.768a.775.775,0,1,0,.562.227A.762.762,0,0,0,636.391,578.768Z" transform="translate(-591.209 -578.768)" fill="#48484a"/>
      <rect id="Rectangle_3" data-name="Rectangle 3" width="1.475" height="4.676" transform="translate(44.448 2.042)" fill="#48484a"/>
      <path id="Path_30" data-name="Path 30" d="M652.066,588.6a1.8,1.8,0,0,0-1.278.488V588.7H649.45v6.969h1.39v-2.639a1.661,1.661,0,0,0,.557.335,1.98,1.98,0,0,0,.669.109,1.907,1.907,0,0,0,1.514-.673,2.59,2.59,0,0,0,.583-1.758,2.617,2.617,0,0,0-.583-1.768A1.9,1.9,0,0,0,652.066,588.6Zm.346,3.376a1.012,1.012,0,0,1-.81.343,1.091,1.091,0,0,1-.391-.074,1.371,1.371,0,0,1-.372-.217v-2a1.509,1.509,0,0,1,.4-.22,1.213,1.213,0,0,1,.407-.071.947.947,0,0,1,.77.357,1.447,1.447,0,0,1,.293.945A1.392,1.392,0,0,1,652.413,591.976Z" transform="translate(-602.327 -586.662)" fill="#48484a"/>
      <path id="Path_31" data-name="Path 31" d="M680.53,588.6a1.8,1.8,0,0,0-1.278.488V588.7h-1.339v6.969h1.39v-2.639a1.663,1.663,0,0,0,.557.335,1.981,1.981,0,0,0,.669.109,1.908,1.908,0,0,0,1.514-.673,2.591,2.591,0,0,0,.583-1.758,2.618,2.618,0,0,0-.583-1.768A1.9,1.9,0,0,0,680.53,588.6Zm.346,3.376a1.012,1.012,0,0,1-.81.343,1.09,1.09,0,0,1-.391-.074,1.371,1.371,0,0,1-.372-.217v-2a1.507,1.507,0,0,1,.4-.22,1.213,1.213,0,0,1,.407-.071.946.946,0,0,1,.77.357,1.446,1.446,0,0,1,.293.945A1.393,1.393,0,0,1,680.877,591.976Z" transform="translate(-625.179 -586.662)" fill="#48484a"/>
      <path id="Path_32" data-name="Path 32" d="M707.229,578.768a.775.775,0,1,0,.562.227A.761.761,0,0,0,707.229,578.768Z" transform="translate(-648.081 -578.768)" fill="#48484a"/>
      <rect id="Rectangle_4" data-name="Rectangle 4" width="1.475" height="4.676" transform="translate(58.413 2.042)" fill="#48484a"/>
      <path id="Path_33" data-name="Path 33" d="M723.346,588.65a2.187,2.187,0,0,0-.868.163,2.267,2.267,0,0,0-.725.518v-.587h-1.465v4.676h1.465V590.44a1.726,1.726,0,0,1,.476-.552.965.965,0,0,1,.57-.187.566.566,0,0,1,.5.232,1.306,1.306,0,0,1,.161.73v2.757h1.475V590.46a1.976,1.976,0,0,0-.409-1.344A1.485,1.485,0,0,0,723.346,588.65Z" transform="translate(-659.199 -586.702)" fill="#48484a"/>
      <path id="Path_34" data-name="Path 34" d="M752.646,588.462h-2.377a3.277,3.277,0,0,0-1.815.417,1.364,1.364,0,0,0-.626,1.211,1.471,1.471,0,0,0,.3.957,1.8,1.8,0,0,0,.925.557,1.285,1.285,0,0,0-.589.266.581.581,0,0,0-.2.449.489.489,0,0,0,.136.35.925.925,0,0,0,.407.227,2.126,2.126,0,0,0-.925.454.931.931,0,0,0-.318.705,1.12,1.12,0,0,0,.641,1.011,4.566,4.566,0,0,0,3.64-.027,1.272,1.272,0,0,0,.631-1.151,1.182,1.182,0,0,0-.392-.927,2.088,2.088,0,0,0-1.142-.449q-.187-.025-.488-.054-.8-.079-.8-.33t.582-.316a4.55,4.55,0,0,0,.469-.059,2.011,2.011,0,0,0,1.122-.505,1.373,1.373,0,0,0,.373-1.009,1.594,1.594,0,0,0-.054-.427,1.377,1.377,0,0,0-.168-.372h.661Zm-2.579,4.976a1.777,1.777,0,0,1,.8.145.444.444,0,0,1,.284.4.457.457,0,0,1-.284.422,1.863,1.863,0,0,1-.826.145,1.8,1.8,0,0,1-.816-.145.464.464,0,0,1-.274-.432.435.435,0,0,1,.291-.4A1.954,1.954,0,0,1,750.067,593.438Zm.58-2.7a.955.955,0,0,1-1.219,0,.847.847,0,0,1,0-1.159.955.955,0,0,1,1.219,0,.847.847,0,0,1,0,1.159Z" transform="translate(-681.104 -586.551)" fill="#48484a"/>
    </g>
  </g>
</svg>
