<svg xmlns="http://www.w3.org/2000/svg" xmlns:xlink="http://www.w3.org/1999/xlink" width="499.407" height="293.17" viewBox="0 0 499.407 293.17">
  <defs>
    <clipPath id="clip-path">
      <path id="SVGID" d="M146.718,424.51V398.465H81.735a11.618,11.618,0,0,1-11.618-11.618v-16.2a11.626,11.626,0,0,1,2.023-6.554l75.714-110.832a11.613,11.613,0,0,1,9.593-5.064h12.378a11.618,11.618,0,0,1,11.618,11.618V366.931h11.618a11.617,11.617,0,0,1,11.618,11.617v8.3a11.619,11.619,0,0,1-11.618,11.618H181.445V424.51a11.619,11.619,0,0,1-11.618,11.618h-11.49A11.619,11.619,0,0,1,146.718,424.51Zm0-62.2v-44.2a4.62,4.62,0,0,0-8.454-2.579l-29.728,44.2a4.62,4.62,0,0,0,3.832,7.2H142.1A4.62,4.62,0,0,0,146.718,362.311Z" transform="translate(-70.117 -248.198)" fill="#515252"/>
    </clipPath>
    <clipPath id="clip-path-2">
      <path id="SVGID-2" data-name="SVGID" d="M401.779,424.51V398.465H336.794a11.619,11.619,0,0,1-11.618-11.618v-16.2a11.627,11.627,0,0,1,2.025-6.554l75.714-110.832a11.613,11.613,0,0,1,9.593-5.064h12.378a11.618,11.618,0,0,1,11.618,11.618V366.931h11.618a11.617,11.617,0,0,1,11.618,11.617v8.3a11.619,11.619,0,0,1-11.618,11.618H436.505V424.51a11.619,11.619,0,0,1-11.618,11.618H413.4A11.619,11.619,0,0,1,401.779,424.51Zm0-62.2v-44.2a4.62,4.62,0,0,0-8.454-2.579l-29.73,44.2a4.62,4.62,0,0,0,3.833,7.2h29.73A4.62,4.62,0,0,0,401.779,362.311Z" transform="translate(-325.176 -248.198)" fill="#515252"/>
    </clipPath>
    <clipPath id="clip-path-3">
      <path id="Path_2144" data-name="Path 2144" d="M311.148,248.629c-1.661-1.355-3.368-2.608-5.1-3.815l-5.669,3.163-.273,4.539-1.408,1.728.694.728-4.095,3.136a25.432,25.432,0,0,0-1.266,3.408c1.4.964,2.772,1.971,4.11,3.062a63.957,63.957,0,0,1,9.263,89.861A61.965,61.965,0,0,1,280.855,373.7v.008l2.133,5.257-1.886,4.3,3.174,4.806,6.491,3.711a84.391,84.391,0,0,0,20.381-143.151Z" transform="translate(-280.855 -244.814)" fill="none"/>
    </clipPath>
    <clipPath id="clip-path-4">
      <path id="Path_2146" data-name="Path 2146" d="M356.92,509.246,312.692,413.7a85,85,0,0,0,21.736-26.329l-7.355,1.228-5.472-1.714-.294-.957-1.078-3.5-5.07-2.649-.006-.006a63.851,63.851,0,1,1-60.484-95.428,25.074,25.074,0,0,1-1.172-3.5l1.193-5.083h-1v-2.229l-2.659-3.69,2.139-6.034a84.437,84.437,0,1,0,33.282,164.246l43.387,93.723a14.663,14.663,0,0,0,19.466,7.147l.467-.216A14.663,14.663,0,0,0,356.92,509.246Z" transform="translate(-175.215 -263.811)" fill="none"/>
    </clipPath>
  </defs>
  <g id="Group_526" data-name="Group 526" transform="translate(-70.117 -244.814)">
    <path id="Path_2119" data-name="Path 2119" d="M503.907,388.4c-23.791,0-44.429,1.838-54.7,4.53a85.255,85.255,0,0,1-21.6,2.94h-36.03a85.263,85.263,0,0,1-21.6-2.94c-10.269-2.692-30.906-4.53-54.7-4.53s-44.429,1.838-54.7,4.53a85.264,85.264,0,0,1-21.6,2.94H217.887a85.247,85.247,0,0,1-21.6-2.94c-10.271-2.692-30.907-4.53-54.7-4.53-34.038,0-61.632,3.763-61.632,8.4s27.594,8.4,61.632,8.4c21.924,0,41.166-1.563,52.089-3.913a78.064,78.064,0,0,1,16.434-1.69h36.643a78.078,78.078,0,0,1,16.435,1.69c10.921,2.351,30.164,3.913,52.089,3.913s41.166-1.563,52.089-3.913a78.055,78.055,0,0,1,16.434-1.69h51.585a78.074,78.074,0,0,1,16.434,1.69c10.923,2.351,30.165,3.913,52.089,3.913,34.038,0,61.632-3.763,61.632-8.4S537.945,388.4,503.907,388.4Z" transform="translate(3.986 58.181)" fill="#5e5e5e" opacity="0.2"/>
    <g id="Group_521" data-name="Group 521" transform="translate(70.117 244.814)">
      <g id="Group_490" data-name="Group 490" transform="translate(0 4.755)">
        <g id="Group_489" data-name="Group 489">
          <path id="SVGID-3" data-name="SVGID" d="M146.718,424.51V398.465H81.735a11.618,11.618,0,0,1-11.618-11.618v-16.2a11.626,11.626,0,0,1,2.023-6.554l75.714-110.832a11.613,11.613,0,0,1,9.593-5.064h12.378a11.618,11.618,0,0,1,11.618,11.618V366.931h11.618a11.617,11.617,0,0,1,11.618,11.617v8.3a11.619,11.619,0,0,1-11.618,11.618H181.445V424.51a11.619,11.619,0,0,1-11.618,11.618h-11.49A11.619,11.619,0,0,1,146.718,424.51Zm0-62.2v-44.2a4.62,4.62,0,0,0-8.454-2.579l-29.728,44.2a4.62,4.62,0,0,0,3.832,7.2H142.1A4.62,4.62,0,0,0,146.718,362.311Z" transform="translate(-70.117 -248.198)" fill="#515252"/>
          <g id="Group_488" data-name="Group 488" clip-path="url(#clip-path)">
            <path id="Path_2120" data-name="Path 2120" d="M141.584,249.384s6.763,1.69,6.763,25.358v92.983H166.38a5.635,5.635,0,0,1,5.635,5.636v16.372a5.634,5.634,0,0,1-5.635,5.635H144.966v46.744l27.049-11.833s19.057-67.212,17.136-82.634S182.159,230.786,141.584,249.384Z" transform="translate(-41.159 -248.636)" fill="#353535"/>
            <path id="Path_2121" data-name="Path 2121" d="M132.192,294.663h0a10.875,10.875,0,0,0-9.375,4.513L97.534,338.322c-5.17,7.193,2.975,8.452,11.835,8.452l6.762-1.69Z" transform="translate(-59.662 -229.376)" fill="#353535"/>
          </g>
        </g>
      </g>
      <g id="Group_517" data-name="Group 517" transform="translate(147.683)">
        <path id="Path_2122" data-name="Path 2122" d="M301.727,259.762c-1.338-1.09-2.713-2.1-4.11-3.062a4.873,4.873,0,0,0-.223,1.574c.148,1.449-4.5,3.413-4.5,3.413s1.23,1-.613,3.263l-4.009,4.917-2.65,8.018-.177,10.918,1.352,11.5s-5.76,2.385-5.588,4.072.222,16.113.222,16.113l6.854,14.44-7.915,5.936-8.357,6.463,3.111,11.388,8.312,5.007.755,5.156a63.819,63.819,0,0,0,17.535-109.117Z" transform="translate(-135.993 -239.998)" fill="#aedfe7" opacity="0.3"/>
        <g id="Group_497" data-name="Group 497" transform="translate(138.875 21.689)">
          <g id="Group_492" data-name="Group 492" transform="translate(11.593 38.619)">
            <g id="Group_491" data-name="Group 491" opacity="0.6">
              <path id="Path_2123" data-name="Path 2123" d="M306.509,299.229l-3.566,1.116-.069.021-.059-.055-2.365-2.195.237.035c-1.862,1.026-3.741,2.019-5.622,3.008l-.122.063-.129-.059q-3.166-1.437-6.3-2.935l-.1-.048-.042-.1-2.014-4.65.148.132-4.091-1.369-.117-.039.01-.114.327-4.314-.021,4.327-.107-.153,4.141,1.2.1.03.046.1,2.1,4.61-.141-.143q3.168,1.435,6.3,2.942l-.251,0c1.891-.971,3.784-1.936,5.7-2.868l.138-.067.1.1,2.264,2.3-.128-.034Z" transform="translate(-282.295 -287.732)" fill="#aedfe7"/>
            </g>
          </g>
          <g id="Group_494" data-name="Group 494" transform="translate(0 67.119)">
            <g id="Group_493" data-name="Group 493" opacity="0.6">
              <path id="Path_2124" data-name="Path 2124" d="M311.995,308.014c-1.629,1.875-3.332,3.675-5,5.508l-.072.077-.155.041c-1.588.417-3.188.771-4.782,1.159l.513-.809,1.1,3.864.153.537-.513.33c-1.969,1.266-3.957,2.5-5.945,3.732l-.273.169-.363-.048a13.553,13.553,0,0,0-2.591-.149c-.153-.018-.388.125-.122-.039l-.594.416c-.385.27-.77.541-1.2.805l-2.49,1.561c-.809.5-1.615,1-2.435,1.474l.5-.88c-.024,2.744-.014,5.487-.065,8.232l-.44-.805,5.25,3.533,2.278,1.532-2.708.007q-4.5.011-8.995-.056c-3-.087-6-.119-9-.28,2.989-.327,5.98-.526,8.971-.781q4.488-.32,8.978-.555l-.43,1.539-5.382-3.328-.429-.266-.01-.54c-.052-2.744-.042-5.487-.066-8.232l0-.575.5-.3,4.761-2.874c.382-.221.774-.488,1.166-.757l.573-.388a1.666,1.666,0,0,1,.741-.336,3.366,3.366,0,0,1,.488-.069,14.432,14.432,0,0,1,3.056.26l-.634.121c2.026-1.168,4.054-2.335,6.1-3.469l-.36.866-.854-3.925-.155-.708.667-.1c1.622-.245,3.236-.524,4.865-.741l-.226.118C308.24,311.256,310.081,309.6,311.995,308.014Z" transform="translate(-274.045 -308.014)" fill="#aedfe7"/>
            </g>
          </g>
          <g id="Group_496" data-name="Group 496" transform="translate(17.205)">
            <g id="Group_495" data-name="Group 495" opacity="0.6">
              <path id="Path_2125" data-name="Path 2125" d="M293.315,312.043l4.366-9.191-.007.142-2.327-5.891-.017-.044v-.052l.171-8.746.066.188c-3.079-3.71-6.117-7.453-9.155-11.2l-.124-.153.1-.167c2.4-3.94,4.862-7.845,7.3-11.761l.042.211-6.624-5.133,6.814,4.877.117.083-.076.128c-2.361,3.965-4.7,7.942-7.1,11.885l-.022-.32c3.07,3.718,6.141,7.433,9.17,11.184l.069.084,0,.105-.252,8.744-.017-.094,2.2,5.941.028.076-.035.067Z" transform="translate(-286.289 -260.249)" fill="#aedfe7"/>
            </g>
          </g>
        </g>
        <path id="Path_2126" data-name="Path 2126" d="M295.753,371.707l-9.6-6.86,2.4-10.289,2.393-9.6-14.421-6.86S267.4,326.947,266.2,325.747s1.823-6.687,1.823-6.687L259.828,311l-7.019-8.574-3.013-7.889v-6.346c0-2.914-1.586-2.914-1.586-2.914s2.1-4.459,1.072-5.489a4.958,4.958,0,0,1-.693-1.362,63.863,63.863,0,1,0,60.6,95.428l-3.835-3.52Z" transform="translate(-169.262 -231.195)" fill="#aedfe7" opacity="0.3"/>
        <g id="Group_504" data-name="Group 504" transform="translate(63.406 85.292)">
          <g id="Group_499" data-name="Group 499" transform="translate(1.866)">
            <g id="Group_498" data-name="Group 498" opacity="0.6">
              <path id="Path_2127" data-name="Path 2127" d="M255.149,308.085c-3.423.7-6.855,1.345-10.29,1.966l-.038.007-.042-.006-5.664-.821.178-.03c-2.3,1.227-4.632,2.4-6.953,3.587l-.082.042-.089-.014q-2.786-.436-5.563-.923l-.084-.015-.048-.06c-1.633-2.08-3.219-4.194-4.809-6.306,1.724,2,3.454,4,5.137,6.041l-.132-.076q2.795.367,5.583.791l-.17.028c2.309-1.211,4.61-2.439,6.939-3.614l.087-.045.091.015,5.653.894h-.08C248.227,309.026,251.684,308.529,255.149,308.085Z" transform="translate(-221.666 -305.512)" fill="#aedfe7"/>
            </g>
          </g>
          <g id="Group_501" data-name="Group 501" transform="translate(12.166 7.032)">
            <g id="Group_500" data-name="Group 500">
              <path id="Path_2128" data-name="Path 2128" d="M229.242,310.516l3.076,2.538.073.06-.055.086c-.951,1.5-1.943,2.979-2.917,4.467l.015-.214,1.544,3.065-.141-.129,8.954,3.433,8.917,3.523-.143-.013c4.03-.78,8.066-1.536,12.111-2.24-3.994.956-8,1.859-12.009,2.739l-.07.015-.073-.028-8.957-3.424-8.92-3.516-.1-.038-.044-.091-1.457-3.108-.053-.115.069-.1c1.029-1.452,2.038-2.916,3.087-4.352l.018.146Z" transform="translate(-228.996 -310.516)" fill="#aedfe7"/>
            </g>
          </g>
          <path id="Path_2129" data-name="Path 2129" d="M245.011,344.18l2.146-9.6-9.26-4.8,7.114-7.114" transform="translate(-213.223 -298.564)" fill="none" stroke="#aedfe7" stroke-miterlimit="10" stroke-width="0.439"/>
          <g id="Group_503" data-name="Group 503" transform="translate(0 17.149)">
            <g id="Group_502" data-name="Group 502">
              <path id="Path_2130" data-name="Path 2130" d="M224.776,346.184q-2.3-6.094-4.383-12.259l-.055-.163.124-.125c2.275-2.33,4.592-4.617,6.914-6.9l-.027.032c1.114-1.534,2.275-3.037,3.415-4.553s2.31-3.01,3.488-4.5c-1.05,1.582-2.108,3.157-3.2,4.712s-2.154,3.124-3.267,4.66l-.013.017-.015.017c-2.283,2.321-4.571,4.638-6.9,6.914l.067-.288Q222.971,339.926,224.776,346.184Z" transform="translate(-220.338 -317.716)" fill="#aedfe7"/>
            </g>
          </g>
        </g>
        <path id="Path_2131" data-name="Path 2131" d="M311.148,248.629c-1.661-1.355-3.368-2.608-5.1-3.815l-5.669,3.163-.273,4.539-1.408,1.728.694.728-4.095,3.136a25.432,25.432,0,0,0-1.266,3.408c1.4.964,2.772,1.971,4.11,3.062a63.957,63.957,0,0,1,9.263,89.861A61.965,61.965,0,0,1,280.855,373.7v.008l2.133,5.257-1.886,4.3,3.174,4.806,6.491,3.711a84.391,84.391,0,0,0,20.381-143.151Z" transform="translate(-132.411 -244.814)" fill="#515252"/>
        <path id="Path_2132" data-name="Path 2132" d="M356.92,509.246,312.692,413.7a85,85,0,0,0,21.736-26.329l-7.355,1.228-5.472-1.714-.294-.957-1.078-3.5-5.07-2.649-.006-.006a63.851,63.851,0,1,1-60.484-95.428,25.074,25.074,0,0,1-1.172-3.5l1.193-5.083h-1v-2.229l-2.659-3.69,2.139-6.034a84.437,84.437,0,1,0,33.282,164.246l43.387,93.723a14.663,14.663,0,0,0,19.466,7.147l.467-.216A14.663,14.663,0,0,0,356.92,509.246Z" transform="translate(-175.215 -237.117)" fill="#515252"/>
        <g id="Group_506" data-name="Group 506" transform="translate(78.068 47.231)">
          <g id="Group_505" data-name="Group 505">
            <path id="Path_2133" data-name="Path 2133" d="M292.627,373.854l-3.958-3.384.149.045-9.558,1.634-.164.028-.16-.107c-3.27-2.191-6.488-4.454-9.735-6.677l-.36-.247.1-.451,2.154-10,.586-2.5.6-2.486,1.21-4.97.495,1.048L259.528,339l-.2-.093-.148-.178-7.393-8.912-1.846-2.206-.923-1.1-.058-.069-.134-.164-.013-.02-.024-.038-.1-.153a2.548,2.548,0,0,1-.246-.679,3.408,3.408,0,0,1-.015-1.023,11.735,11.735,0,0,1,.908-3.038,29.657,29.657,0,0,1,1.308-2.711l.162,1.106-8.133-8.116-.028-.028-.014-.015-7.39-8.7-.072-.084-.035-.081-3.392-7.949-.046-.11,0-.1.132-4.827.034-1.206c.007-.216.01-.381,0-.586l-.013-.6a4.9,4.9,0,0,0-.2-1.092,1.614,1.614,0,0,0-.228-.462.736.736,0,0,0-.294-.242l-.365-.079.152-.277a19.461,19.461,0,0,0,1.466-3.308,3.369,3.369,0,0,0,.188-1.744,1.8,1.8,0,0,0-.214-.384,1.289,1.289,0,0,1-.193-.423c-.086-.3-.163-.59-.27-.878.126.278.229.571.332.853a1.2,1.2,0,0,0,.214.391,1.974,1.974,0,0,1,.257.395,3.524,3.524,0,0,1-.053,1.86,18.232,18.232,0,0,1-1.3,3.464l-.215-.356a1.035,1.035,0,0,1,.694.4,2.134,2.134,0,0,1,.34.592,5.4,5.4,0,0,1,.3,1.26l.045.6c.018.2.028.434.031.62l.034,1.206.132,4.827-.044-.207,3.662,7.827-.107-.164,7.678,8.448-.042-.045,8.244,8,.493.479-.333.627a27.968,27.968,0,0,0-1.189,2.536,10.139,10.139,0,0,0-.743,2.52,2.1,2.1,0,0,0-.008.423c.028,0-.1-.1-.032.01l.1.152.025.038.013.02,0,0c-.052-.065.122.149-.117-.142l.007.008.06.07.956,1.114,1.912,2.23c1.266,1.487,2.572,2.973,3.8,4.466l3.683,4.5-.346-.27,14.384,6.939.68.329-.184.719-2.538,9.9L270.244,365l-.264-.7c3.157,2.349,6.343,4.658,9.475,7.04l-.323-.079,9.634-1.109.093-.011.058.058Z" transform="translate(-230.772 -278.426)" fill="#aedfe7"/>
          </g>
        </g>
        <g id="Group_508" data-name="Group 508" transform="translate(135.247 16.702)">
          <g id="Group_507" data-name="Group 507">
            <path id="Path_2134" data-name="Path 2134" d="M297.84,256.7c-.051.3-.117.61-.156.916-.007.3,0,.615-.024.927a2,2,0,0,1-.5.833,5.683,5.683,0,0,1-.7.637,18.012,18.012,0,0,1-3.242,1.9l.059-.415a1.707,1.707,0,0,1,.513,1.346,3.238,3.238,0,0,1-.377,1.308,3.16,3.16,0,0,1-.337.565c-.122.178-.24.374-.368.537l-.762.988-3.046,3.95.09-.163-2.515,8.062.032-.2.006,10.921-.006-.111c.51,3.826.954,7.661,1.436,11.492l.084.68-.649.281a27.575,27.575,0,0,0-2.513,1.238,9.983,9.983,0,0,0-2.15,1.5,1.6,1.6,0,0,0-.281.353c.006.022-.066.1-.028.066a.022.022,0,0,0,0-.03l-.007-.007h0l0,.053v.114l.038,1.453.074,2.906c.118,3.863.167,7.776.153,11.68l-.1-.427,6.773,14.476.32.684-.6.444-16.411,12.2.239-.71c.963,3.815,1.97,7.619,2.9,11.445l-.2-.267,8.173,5.234.079.051.008.081.573,5.182-.937-5.129.087.131-8.449-4.778-.146-.083-.056-.185c-1.148-3.765-2.215-7.553-3.326-11.327l-.124-.422.361-.291,7.987-6.394,2.036-1.568,2.038-1.546,4.075-3.091-.28,1.128-6.935-14.4-.094-.2,0-.232c-.02-1.925-.058-3.849-.048-5.774s-.041-3.87-.063-5.8l-.042-2.907-.021-1.454v-.114c0,.015,0-.048,0,.031v-.024l0-.1a3.327,3.327,0,0,1,.037-.391,1.908,1.908,0,0,1,.225-.608,3.314,3.314,0,0,1,.608-.787,11.615,11.615,0,0,1,2.6-1.811,29.539,29.539,0,0,1,2.716-1.3l-.563.961c-.42-3.838-.878-7.671-1.27-11.513l-.007-.069v-.042l.36-10.915,0-.112.03-.084,2.784-7.973.035-.1.055-.065,3.256-3.779.815-.944c.136-.157.239-.316.361-.474a3.335,3.335,0,0,0,.7-1.529,1.41,1.41,0,0,0-.042-.517,1.066,1.066,0,0,0-.223-.422l-.249-.288.309-.126a19.071,19.071,0,0,0,3.271-1.669,5.443,5.443,0,0,0,.717-.559,1.923,1.923,0,0,0,.512-.7c.046-.306.062-.611.093-.929C297.678,257.3,297.767,257,297.84,256.7Z" transform="translate(-271.463 -256.7)" fill="#aedfe7"/>
          </g>
        </g>
        <path id="Path_2135" data-name="Path 2135" d="M259.936,375.651c-18.764,2.593-43.135.9-52.217-21.82-8.8-22.018,3.177-42.216,17.54-53.869h0a42.78,42.78,0,0,0-22.971,55.97c9.113,21.8,35.849,28.832,57.648,19.719Z" transform="translate(-165.591 -222.922)" fill="#fff"/>
        <g id="Group_510" data-name="Group 510" transform="translate(74.901 26.694)">
          <g id="Group_509" data-name="Group 509">
            <path id="Path_2136" data-name="Path 2136" d="M233.072,284.348a14.542,14.542,0,0,1-.932-1.63c-.281-.575-.523-1.147-.753-1.744l-.025-.066.024-.183c.221-1.735.475-3.464.811-5.171l.9,1.13c-.333.031-.666.074-1,.076l-.974,0-.022-1c-.017-.743-.046-1.485-.014-2.229l.191.59c-.43-.625-.877-1.237-1.282-1.88s-.842-1.262-1.225-1.919l-.25-.429.142-.327a47.493,47.493,0,0,1,2.914-5.758,47.431,47.431,0,0,1-1.363,6.308l-.108-.755c.5.572.954,1.18,1.433,1.769s.92,1.206,1.377,1.811l.174.232.015.358c.032.743,0,1.485-.014,2.229l-.995-1c.333,0,.666.045,1,.076l1.175.108-.28,1.023c-.458,1.679-1,3.339-1.572,4.991v-.249c.084.593.181,1.208.3,1.8C232.8,283.121,232.961,283.732,233.072,284.348Z" transform="translate(-228.518 -263.811)" fill="#949a9a"/>
          </g>
        </g>
        <g id="Group_512" data-name="Group 512" transform="translate(161.624)">
          <g id="Group_511" data-name="Group 511">
            <path id="Path_2137" data-name="Path 2137" d="M290.234,261.516c.069-.617.159-1.225.264-1.828a12.993,12.993,0,0,1,.464-1.827l.021-.067.157-.155c1.235-1.214,2.542-2.335,3.86-3.443l-.114,1.452-.71-.715-.616-.618.565-.7c.465-.579.908-1.178,1.391-1.741l-.228.585c.1-1.513.245-3.023.429-4.53l.065-.53.377-.173a45.366,45.366,0,0,1,6.09-2.409A45.375,45.375,0,0,1,297,248.73l.441-.7q.006,2.279-.114,4.549l-.017.313-.211.271c-.457.587-.953,1.142-1.426,1.714l-.051-1.321.679.743.769.839-.881.613c-1.414.984-2.837,1.953-4.331,2.83l.177-.222c-.275.5-.614.986-.882,1.55C290.866,260.448,290.561,260.986,290.234,261.516Z" transform="translate(-290.234 -244.814)" fill="#949a9a"/>
          </g>
        </g>
        <g id="Group_514" data-name="Group 514" transform="translate(139.944 142.665)">
          <g id="Group_513" data-name="Group 513">
            <path id="Path_2138" data-name="Path 2138" d="M294.074,353.935a35.535,35.535,0,0,1-3.579,1.2c-1.2.351-2.411.649-3.627.92l-.163.035-.256-.065c-1.855-.474-3.691-1-5.5-1.616l-.516-.176-.145-.489c-.444-1.491-.829-3-1.165-4.523l.389.466a42.775,42.775,0,0,1-4.7-3.347,42.646,42.646,0,0,1,5.435,1.949l.243.1.145.364q.868,2.173,1.581,4.394l-.66-.665c1.837.531,3.648,1.144,5.44,1.814l-.419-.03c1.237-.139,2.479-.25,3.729-.308A35.558,35.558,0,0,1,294.074,353.935Z" transform="translate(-274.806 -346.341)" fill="#949a9a"/>
          </g>
        </g>
        <g id="Group_516" data-name="Group 516" transform="translate(147.553 128.89)">
          <g id="Group_515" data-name="Group 515">
            <path id="Path_2139" data-name="Path 2139" d="M281.112,336.538a43.259,43.259,0,0,1,2.857,4.963l.118.235-.126.372q-.763,2.23-1.681,4.393l-.083-.958c1.1,1.578,2.122,3.2,3.093,4.862l-.306-.288c1.05.674,2.084,1.377,3.091,2.125a35.091,35.091,0,0,1,2.949,2.373,34.929,34.929,0,0,1-3.541-1.338c-1.156-.488-2.286-1.023-3.4-1.586l-.15-.074-.157-.212c-1.145-1.544-2.236-3.125-3.256-4.752l-.3-.476.218-.482q.963-2.142,2.09-4.211l-.007.607A43.136,43.136,0,0,1,281.112,336.538Z" transform="translate(-280.221 -336.538)" fill="#949a9a"/>
          </g>
        </g>
        <path id="Path_2140" data-name="Path 2140" d="M292.388,273.232s27.223,14.191,11.832,46.56C304.22,319.792,327.372,287.552,292.388,273.232Z" transform="translate(-127.738 -233.299)" fill="#fff"/>
      </g>
      <g id="Group_520" data-name="Group 520" transform="translate(358.406 4.755)">
        <g id="Group_519" data-name="Group 519">
          <path id="SVGID-4" data-name="SVGID" d="M401.779,424.51V398.465H336.794a11.619,11.619,0,0,1-11.618-11.618v-16.2a11.627,11.627,0,0,1,2.025-6.554l75.714-110.832a11.613,11.613,0,0,1,9.593-5.064h12.378a11.618,11.618,0,0,1,11.618,11.618V366.931h11.618a11.617,11.617,0,0,1,11.618,11.617v8.3a11.619,11.619,0,0,1-11.618,11.618H436.505V424.51a11.619,11.619,0,0,1-11.618,11.618H413.4A11.619,11.619,0,0,1,401.779,424.51Zm0-62.2v-44.2a4.62,4.62,0,0,0-8.454-2.579l-29.73,44.2a4.62,4.62,0,0,0,3.833,7.2h29.73A4.62,4.62,0,0,0,401.779,362.311Z" transform="translate(-325.176 -248.198)" fill="#515252"/>
          <g id="Group_518" data-name="Group 518" clip-path="url(#clip-path-2)">
            <path id="Path_2141" data-name="Path 2141" d="M396.644,249.384s6.763,1.69,6.763,25.358v92.983H421.44a5.635,5.635,0,0,1,5.635,5.636v16.372a5.634,5.634,0,0,1-5.635,5.635H400.025v46.744l27.05-11.833s19.057-67.212,17.136-82.634S437.219,230.786,396.644,249.384Z" transform="translate(-296.218 -248.636)" fill="#353535"/>
            <path id="Path_2142" data-name="Path 2142" d="M387.252,294.663h0a10.875,10.875,0,0,0-9.375,4.513l-25.282,39.146c-5.171,7.193,2.975,8.452,11.835,8.452l6.762-1.69Z" transform="translate(-314.72 -229.376)" fill="#353535"/>
          </g>
        </g>
      </g>
    </g>
    <g id="Group_523" data-name="Group 523" transform="translate(366.244 244.814)">
      <g id="Group_522" data-name="Group 522" clip-path="url(#clip-path-3)">
        <path id="Path_2143" data-name="Path 2143" d="M304.243,242.437s47.337,28.74,32.121,89.6S272.122,392.9,272.122,392.9s25.359,13.525,37.194,10.144,55.789-89.6,50.718-130.177S304.243,242.437,304.243,242.437Z" transform="translate(-284.394 -246.234)" fill="#353535"/>
      </g>
    </g>
    <g id="Group_525" data-name="Group 525" transform="translate(217.8 271.508)">
      <g id="Group_524" data-name="Group 524" clip-path="url(#clip-path-4)">
        <path id="Path_2145" data-name="Path 2145" d="M285.792,351.97s-6.762,16.906-20.287,25.359l50.718,98.054s5.359,15.083-6.618,20.222,11.691,23.734,18.453.066,13.525-45.646-11.835-82.84S334.82,336.755,285.792,351.97Z" transform="translate(-138.63 -229.461)" fill="#353535"/>
      </g>
    </g>
  </g>
</svg>
